<svg xmlns="http://www.w3.org/2000/svg" viewBox="0 0 24 24" width="24" height="24" fill="none" stroke="currentColor" stroke-width="1.5" stroke-linecap="round" stroke-linejoin="round">
<path d="M4 5.5 a1.5 1.5 0 0 1 1.5 -1.5 H10 a1.5 1.5 0 0 1 1.5 1.5 V20 H5.5 a1.5 1.5 0 0 1 -1.5 -1.5 Z"></path><path d="M12.5 5.5 a1.5 1.5 0 0 1 1.5 -1.5 H18.5 a1.5 1.5 0 0 1 1.5 1.5 V18.5 a1.5 1.5 0 0 1 -1.5 1.5 H12.5 Z"></path><line x1="6.5" y1="8" x2="9" y2="8"></line><line x1="14.5" y1="8" x2="17.5" y2="8"></line><line x1="14.5" y1="11" x2="17.5" y2="11"></line>
</svg>